<svg xmlns="http://www.w3.org/2000/svg" viewBox="0 0 466.88 156.9"><g id="レイヤー_2" data-name="レイヤー 2"><g id="レイヤー_1-2" data-name="レイヤー 1"><path d="M114.46,76.37l7.84-.21.07.14c-.44.47-1,.88-1.44,1.31s-1,.9-1.51,1.34L118,80.25l-1.47,1.32.05.14,8.06-.21.06.15a17.14,17.14,0,0,1-1.53,1.42c-.51.47-1,.92-1.56,1.38L120,85.87l-1.58,1.4,1.55,3.85c-.23.14-.43.28-.63.38-2.66,1.37-5.31,2.75-8,4.1a6.21,6.21,0,0,1-8.94-4.15c-.47-2-.8-4.12-1.18-6.19q-.9-4.79-1.77-9.57c-.36-2-.66-3.93-1-5.88a27.28,27.28,0,0,0-3.35-8.76A30.69,30.69,0,0,0,73.45,45.84a29.83,29.83,0,0,0-14.76,1l-.61.17Q52.65,26.75,47.23,6.5l.58-.27A77.54,77.54,0,0,1,64.13,1.31,83,83,0,0,1,78.55,0a21.67,21.67,0,0,1,7.56,1.38A24.6,24.6,0,0,1,91.67,4.3a26,26,0,0,0,11.66,4.44A26.55,26.55,0,0,0,117.9,6.49a7.49,7.49,0,0,1,1.47-.5,4.56,4.56,0,0,1,3.36.62c1.64.93,3.29,1.84,4.86,2.88A56.14,56.14,0,0,1,147.46,32.3c.19.39.39.78.54,1.18a2.7,2.7,0,0,0,.92,1.22,1.5,1.5,0,0,1,.21,2.15c-.4.53-.82,1.06-1.22,1.6a15.27,15.27,0,0,0-3,8.16,17.23,17.23,0,0,0,.69,6.35,8.69,8.69,0,0,0,.7,1.67,31.84,31.84,0,0,1,3.88,12.57,32.75,32.75,0,0,1-.62,10.07,12.3,12.3,0,0,1-.91,3A8.69,8.69,0,0,1,145,84.08c-2.47,1.36-5,2.64-7.55,4l-1-2.41-11,.48a11.23,11.23,0,0,1,1.34-1.22l1.33-1.14,1.34-1.13,1.29-1.1,1.34-1.13c.44-.38.88-.76,1.31-1.2-1.76,0-3.51.08-5.26.14s-3.55.16-5.35.18a22.32,22.32,0,0,1,1.84-1.68l1.94-1.64,1.88-1.6a15.83,15.83,0,0,0,1.84-1.74l-10,.44a.43.43,0,0,1,0-.1.07.07,0,0,1,0,0,.27.27,0,0,1,.08-.1l8-6.84a.24.24,0,0,0,0-.07c0-.39-.21-.48-.56-.5a22.08,22.08,0,0,0-6.33.56,22.59,22.59,0,0,0-9.15,4.45l-.5.43c1.47.1,2.81,0,4.15-.06s2.67-.06,4.12-.09a9.81,9.81,0,0,1-1.44,1.39c-.47.44-1,.86-1.45,1.29s-1,.86-1.46,1.3l-1.44,1.28Z"/><path d="M31.29,15.83l1.49,5.52q4.86,18.17,9.74,36.32a1.64,1.64,0,0,1-.27,1.55,46.78,46.78,0,0,0-7.74,18.16A44.2,44.2,0,0,0,33.67,86v.82c-1-.17-1.79-.34-2.65-.46a40.62,40.62,0,0,0-13.65.17,23.1,23.1,0,0,0-6.26,2.1c-.26.14-.49.32-.79.51.3.42.54.77.81,1.11a24.89,24.89,0,0,0,5.63,5.16,43.7,43.7,0,0,0,15.43,6.48c1.25.28,2.51.49,3.77.69a.92.92,0,0,1,.83.67,45.65,45.65,0,0,0,5.89,10.88,45.18,45.18,0,0,0,6.5,6.9,63.54,63.54,0,0,0,12.23,8.66,1.18,1.18,0,0,1,.64.82q3.36,12.59,6.73,25.16c0,.19.09.38.15.67A75.09,75.09,0,0,1,54,153a77.82,77.82,0,0,1-31.44-19.54A77,77,0,0,1,3.92,102.9C-7.57,67.56,7.58,33.09,31.29,15.83Z"/><path d="M59.36,56.38c.73-.12,1.38-.24,2-.33a31.09,31.09,0,0,1,25.71,7.72,12.92,12.92,0,0,1,1.69,1.7A10.41,10.41,0,1,1,71,75.58c-.06-.16-.1-.32-.15-.48L71,75a2.12,2.12,0,0,0,.21.36,6.2,6.2,0,0,0,10.74-3.11,6.19,6.19,0,0,0-.79-4.2,21.66,21.66,0,0,0-5.73-6.65,22.86,22.86,0,0,0-10.75-4.61,25.39,25.39,0,0,0-4.85-.21,1.89,1.89,0,0,0-.35.07q13.35,49.92,26.74,99.88a77.2,77.2,0,0,1-15.94,0Q62.62,128,55,99.53a5.07,5.07,0,0,0-.49.19,24.93,24.93,0,0,1-8,2.29,39.2,39.2,0,0,1-9.86-.05,46.35,46.35,0,0,1-13.7-3.86,33.79,33.79,0,0,1-8.31-5.29,20.81,20.81,0,0,1-2.79-3c-.1-.13-.19-.28-.33-.47.21-.12.38-.23.56-.32a23.38,23.38,0,0,1,7.07-2.12,43.15,43.15,0,0,1,19.5,1.89,38.06,38.06,0,0,1,11.7,6,22.92,22.92,0,0,1,4.22,4.13c.07.1.17.18.36.4l-.43-1.71q-4-15-8-29.92-5-18.75-10.07-37.51-2-7.29-3.9-14.56c-.16-.59-.16-.59.35-.95A77.69,77.69,0,0,1,45.61,7.19L46,7.05a.73.73,0,0,1,.18,0Q52.75,31.69,59.36,56.38Z"/><path d="M87.39,156.4c-1.74-6.52-3.47-13-5.23-19.52,16.75,2.46,32.32-.6,46.44-9.89s23.18-22.26,27.6-38.54A78.22,78.22,0,0,1,120,145,78.18,78.18,0,0,1,87.39,156.4Z"/><path d="M76.79,120.71c.22-.29.41-.55.61-.8a24.78,24.78,0,0,1,6-5.27,42.44,42.44,0,0,1,13.92-5.73,43.74,43.74,0,0,1,10.57-1.15,29.46,29.46,0,0,1,10.55,1.92c.52.21,1,.46,1.54.7.11.05.21.13.38.23-.16.22-.3.43-.45.63a25.39,25.39,0,0,1-6.84,5.93,43.67,43.67,0,0,1-14.36,5.51,43.19,43.19,0,0,1-10.27.88,29,29,0,0,1-9.4-1.79A10.37,10.37,0,0,1,76.79,120.71Z"/><path d="M224.25,93.15V77.21h-16V93.15h-6.48v-35h6.48V71.74h16V58.11h6.48v35Z"/><path d="M253.86,93.15a6.76,6.76,0,0,1-.77-3.74c-.72,1.39-2.3,4.37-8.35,4.37-7.1,0-9-4.32-9-7.59,0-6,5.32-7.73,11.08-8.54,2.79-.39,5.91-.92,5.91-3.32,0-2.06-2.21-2.68-4.18-2.68-.57,0-3.31-.05-4.94,1.58a3.53,3.53,0,0,0-1,2.54h-5.71c.48-8,7.63-9.07,11.09-9.07,5.95,0,11.13,2.59,11.13,9.27V90.18a3.32,3.32,0,0,0,1.44,3Zm-5.71-11.52c-2.4.39-6,1.25-6,4.37,0,1.82,1.77,3.26,4.08,3.26,2.59,0,6.43-1.63,6.43-5.23V81.1l.34-1.68C251.94,80.72,250.89,81.15,248.15,81.63Z"/><path d="M279.73,93.15l-7.25-11.28L269.56,85v8.16h-6.34v-35h6.34V76.49l-.34,2.21,1.3-1.87,7.92-9.5H286l-9.26,9.93,10.51,15.89Z"/><path d="M306.13,93.15v-2l.29-2.69c-.72,1.63-2.26,5.33-8.06,5.33-6,0-8.45-3.89-8.45-9.84V67.33h6.33V83.94c0,3.5,2.36,4.7,4.42,4.7,3.36,0,5.47-2.83,5.47-6.34v-15h6.34V93.15Z"/><path d="M333.92,93.15a6.76,6.76,0,0,1-.76-3.74c-.72,1.39-2.31,4.37-8.36,4.37-7.1,0-9-4.32-9-7.59,0-6,5.33-7.73,11.09-8.54,2.78-.39,5.9-.92,5.9-3.32,0-2.06-2.21-2.68-4.17-2.68-.58,0-3.32-.05-5,1.58a3.57,3.57,0,0,0-1,2.54h-5.71c.48-8,7.63-9.07,11.09-9.07,6,0,11.14,2.59,11.14,9.27V90.18a3.3,3.3,0,0,0,1.44,3Zm-5.71-11.52c-2.4.39-5.95,1.25-5.95,4.37,0,1.82,1.78,3.26,4.08,3.26,2.59,0,6.43-1.63,6.43-5.23V81.1l.34-1.68C332,80.72,331,81.15,328.21,81.63Z"/><path d="M344.2,93.15V86.53h6.48v6.62Z"/><path d="M384.18,93.15h-6.57l-3.7-15.36-.72-5.47-.67,5.47-3.7,15.36h-6.58l-7.53-25.82h6.43L365,82.69l.72,5.33.81-5.33,3.8-15.36h5.71l3.79,15.36.82,5.33.72-5.33,3.89-15.36h6.43Z"/><path d="M407.75,93.78c-10,0-13.4-7-13.4-13.35,0-8.59,6.2-13.73,13.54-13.73,8.59,0,13.49,6.15,13.49,13.64C421.38,87,417.35,93.78,407.75,93.78Zm.14-22c-3.55,0-7.06,2.79-7.06,8.45,0,4.9,2.69,8.55,7.25,8.55,6,0,6.87-5.28,6.87-8.5C415,74.33,411.44,71.74,407.89,71.74Z"/><path d="M438.28,73c-4.47,0-6.92,3.07-6.92,6.24V93.15H425V67.33h6.33V69.2L430.88,73c2.59-4.66,4.32-6.14,9.6-6.29V73Z"/><path d="M459.35,93.15,452.1,81.87,449.17,85v8.16h-6.34v-35h6.34V76.49l-.34,2.21,1.3-1.87,7.92-9.5h7.59l-9.27,9.93,10.51,15.89Z"/></g></g></svg>