<svg xmlns="http://www.w3.org/2000/svg" viewBox="0 0 576.02 578.61"><g id="レイヤー_2" data-name="レイヤー 2"><g id="レイヤー_1-2" data-name="レイヤー 1"><path d="M422.11,281.62l28.9-.75.26.49c-1.63,1.76-3.54,3.24-5.31,4.86s-3.71,3.29-5.57,4.93L435,295.92l-5.44,4.87.2.52,29.73-.75c.07.18.15.36.23.54a59.62,59.62,0,0,1-5.66,5.23c-1.88,1.73-3.83,3.4-5.74,5.1l-5.92,5.25-5.83,5.16,5.71,14.2c-.85.51-1.56,1-2.32,1.4-9.79,5-19.57,10.12-29.39,15.11a22.89,22.89,0,0,1-32.94-15.32c-1.74-7.53-3-15.19-4.38-22.8-2.19-11.77-4.39-23.53-6.53-35.31-1.31-7.22-2.41-14.48-3.81-21.68a101.49,101.49,0,0,0-12.36-32.3c-18.09-30.68-44.72-49.46-79.69-56.1a110.17,110.17,0,0,0-54.43,3.58c-.67.21-1.36.37-2.26.62L174.19,24c.73-.35,1.41-.71,2.12-1A284.3,284.3,0,0,1,236.5,4.84,302.75,302.75,0,0,1,289.66,0a79.78,79.78,0,0,1,27.88,5.09,90.26,90.26,0,0,1,20.51,10.77,96.05,96.05,0,0,0,43,16.37c18.72,2.42,36.57-.6,53.72-8.3a28.79,28.79,0,0,1,5.41-1.85c4.42-1,8.58.1,12.41,2.29,6,3.45,12.14,6.8,17.93,10.63a207.34,207.34,0,0,1,73.27,84.12c.69,1.43,1.41,2.87,2,4.35a9.7,9.7,0,0,0,3.4,4.49c2.5,1.82,2.72,5.36.77,7.92-1.5,2-3,3.92-4.52,5.9a56.37,56.37,0,0,0-11.2,30.1,64,64,0,0,0,2.54,23.41,32,32,0,0,0,2.59,6.16,117.76,117.76,0,0,1,14.3,46.37A120.71,120.71,0,0,1,551.4,285,46.26,46.26,0,0,1,548,295.9a32,32,0,0,1-13.2,14.17c-9.1,5-18.35,9.73-27.84,14.74l-3.82-8.88-40.51,1.76a42.56,42.56,0,0,1,4.93-4.48c1.63-1.43,3.29-2.81,4.93-4.2l4.94-4.19,4.75-4,4.94-4.19c1.63-1.4,3.26-2.8,4.84-4.43-6.51-.15-13,.3-19.42.54s-13.06.58-19.72.65a77.66,77.66,0,0,1,6.81-6.18c2.37-2,4.75-4,7.13-6.06s4.64-3.92,7-5.89a63.73,63.73,0,0,0,6.78-6.41l-36.72,1.59a1.58,1.58,0,0,1-.13-.34.3.3,0,0,1,0-.21,1.79,1.79,0,0,1,.31-.36l29.55-25.21c.06-.05.08-.14.14-.25.08-1.46-.8-1.79-2.09-1.86a82,82,0,0,0-23.32,2.05,83.62,83.62,0,0,0-33.76,16.44c-.49.39-1,.81-1.85,1.57,5.43.39,10.37-.18,15.31-.22s9.87-.22,15.21-.34c-1.62,2.24-3.61,3.54-5.31,5.12s-3.58,3.19-5.38,4.78l-5.38,4.77-5.3,4.73Z"/><path d="M115.4,58.39c1.86,6.93,3.67,13.63,5.46,20.34q18,67,36,134a6,6,0,0,1-1,5.7,172.26,172.26,0,0,0-28.54,67A162.73,162.73,0,0,0,124.16,317v3c-3.48-.6-6.61-1.22-9.75-1.67-16.81-2.37-33.6-2.7-50.35.61A84.82,84.82,0,0,0,41,326.73c-1,.5-1.82,1.17-2.92,1.88,1.12,1.54,2,2.85,3,4.09a92.21,92.21,0,0,0,20.79,19c17.33,11.85,36.48,19.39,56.88,23.9,4.6,1,9.26,1.81,13.91,2.55a3.37,3.37,0,0,1,3,2.45,170.06,170.06,0,0,0,21.72,40.15c6.91,9.49,15.31,17.6,24,25.43a234.26,234.26,0,0,0,45.1,31.92,4.4,4.4,0,0,1,2.35,3Q241.2,527.58,253.65,574c.19.69.31,1.39.55,2.45A276.64,276.64,0,0,1,199,564.15a287,287,0,0,1-116-72A284.24,284.24,0,0,1,14.47,379.47C-27.92,249.15,28,122,115.4,58.39Z"/><path d="M218.9,207.92c2.68-.44,5.09-.9,7.53-1.23q53.86-7.27,94.82,28.46a52.87,52.87,0,0,1,6.23,6.29,38.39,38.39,0,1,1-65.8,37.28c-.21-.58-.37-1.18-.55-1.77l.54-.46a7.34,7.34,0,0,0,.78,1.34c6.44,6.79,14.25,9.38,23.3,6.8s14.55-9,16.31-18.26c1-5.46-.27-10.66-2.91-15.49A79.41,79.41,0,0,0,278,226.37a83.77,83.77,0,0,0-39.61-17,95,95,0,0,0-17.92-.8,10.48,10.48,0,0,0-1.28.28Q268.4,392.93,317.8,577.16A285.74,285.74,0,0,1,259,577q-28.11-104.91-56.26-210c-.69.27-1.26.44-1.79.7-9.34,4.66-19.29,7.13-29.58,8.44a144,144,0,0,1-36.35-.17,170.87,170.87,0,0,1-50.54-14.24,124,124,0,0,1-30.62-19.5,76.21,76.21,0,0,1-10.3-11c-.38-.51-.72-1-1.21-1.75.75-.43,1.39-.86,2.06-1.19a86.58,86.58,0,0,1,26.06-7.8c24.53-3.56,48.45-.5,71.9,7,15.57,5,30.13,12,43.16,22a83.63,83.63,0,0,1,15.55,15.22c.29.37.63.69,1.35,1.47-.63-2.47-1.1-4.38-1.61-6.28q-14.79-55.17-29.61-110.34-18.56-69.18-37.13-138.35-7.2-26.84-14.38-53.68c-.58-2.15-.58-2.17,1.29-3.5a290.12,290.12,0,0,1,47.17-27.43,12.8,12.8,0,0,1,1.34-.52,2.66,2.66,0,0,1,.65.06Q194.51,116.86,218.9,207.92Z"/><path d="M322.28,576.74c-6.44-24-12.82-47.86-19.29-72,61.77,9.08,119.17-2.22,171.24-36.49S559.73,386.21,576,326.19A288.45,288.45,0,0,1,442.4,534.74,288.43,288.43,0,0,1,322.28,576.74Z"/><path d="M283.19,445.14c.8-1.06,1.49-2,2.22-2.94a92.14,92.14,0,0,1,22-19.44c15.77-10.28,33-17,51.33-21.14a161.33,161.33,0,0,1,39-4.23c13.33.25,26.42,2,38.9,7.08,1.92.77,3.79,1.69,5.67,2.57a13.13,13.13,0,0,1,1.4.86c-.58.82-1.08,1.59-1.65,2.32-7,8.95-15.65,15.94-25.23,21.85-16.37,10.1-34.16,16.53-52.94,20.33A158.44,158.44,0,0,1,326,455.64c-11.88-.48-23.52-2.27-34.67-6.58A38.88,38.88,0,0,1,283.19,445.14Z"/></g></g></svg>